<svg width="96" height="860" viewBox="0 0 96 860" fill="none" xmlns="http://www.w3.org/2000/svg">
<g clip-path="url(#clip0)">
<rect width="96" height="860" fill="#F2FE67"/>
<rect width="96" height="618" fill="url(#paint0_linear)"/>
<rect width="252.523" height="826.488" rx="126.261" transform="matrix(-0.422618 -0.906308 -0.906308 0.422618 211.773 630.863)" fill="url(#paint1_radial)"/>
<path d="M43 449.951C43 450.956 43.8182 450.928 44.2273 450.789C44.3636 450.928 44.6364 451.627 44.6364 453.302C44.9157 455.305 44.4203 457.856 44.0148 459.343C43.898 459.771 43.9006 460.287 44.284 460.495C44.8191 460.785 45.5627 460.622 45.8636 460.006C46.1541 459.411 46.2512 455.693 46.2694 453.301C46.2729 452.838 46.67 452.46 47.0307 452.738C47.2658 452.92 47.4265 453.152 47.5 453.302C47.7709 456.077 47.4999 459.234 47.2438 461.111C47.1732 461.628 47.5637 462.093 48.0628 461.984C49.5273 461.662 51.0296 460.766 50.3636 460.425C49.7091 460.09 48.7273 460.425 48.7273 460.425C49.1364 458.33 49.2727 454.839 49.1364 453.302C49.7909 451.962 49.6818 449.951 49.5455 449.113L50.1959 450.445C50.3071 450.673 50.3844 450.916 50.4253 451.168L50.6802 452.734C50.7336 453.062 51.0108 453.302 51.3356 453.302C51.7025 453.302 52 452.998 52 452.622V451.015C52 450.864 51.9859 450.715 51.9557 450.567C51.1105 446.438 49.1364 441.99 49.1364 441.99V439.652C49.1364 438.83 48.5461 438.133 47.7514 438.017C46.917 437.895 46.1315 438.451 45.9487 439.294L45.7273 440.314C45.5532 441.117 45.0647 441.811 44.3764 442.234C43.7701 442.606 43.3789 443.257 43.3304 443.98C43.1885 446.097 43 449.115 43 449.951Z" fill="black"/>
<ellipse opacity="0.2" cx="47.5" cy="461" rx="8.5" ry="3" fill="black"/>
</g>
<defs>
<linearGradient id="paint0_linear" x1="48" y1="0" x2="48.0004" y2="618" gradientUnits="userSpaceOnUse">
<stop stop-color="#25C06D"/>
<stop offset="1" stop-color="#F2FE67"/>
</linearGradient>
<radialGradient id="paint1_radial" cx="0" cy="0" r="1" gradientUnits="userSpaceOnUse" gradientTransform="translate(178.656 190.761) rotate(92.5653) scale(741.18 219.504)">
<stop stop-color="#F2FE67"/>
<stop offset="0.302083" stop-color="#F2FE67"/>
<stop offset="0.5" stop-color="#10CD7E"/>
<stop offset="0.796875" stop-color="#A056FF"/>
</radialGradient>
<clipPath id="clip0">
<rect width="96" height="860" fill="white"/>
</clipPath>
</defs>
</svg>
