<svg width="16" height="16" viewBox="0 0 16 16" fill="none" xmlns="http://www.w3.org/2000/svg">
<path fill-rule="evenodd" clip-rule="evenodd" d="M0.862154 9.414C0.0811059 8.63295 0.0811042 7.36662 0.862153 6.58557L1.95111 5.49661V3.95318C1.95111 2.84861 2.84654 1.95318 3.95111 1.95318H5.49454L6.58557 0.862154C7.36661 0.0811059 8.63295 0.0811042 9.41399 0.862153L10.505 1.95318H12.0452C13.1498 1.95318 14.0452 2.84861 14.0452 3.95318V5.4934L15.1374 6.58557C15.9185 7.36661 15.9185 8.63295 15.1374 9.41399L14.0452 10.5062V12.0473C14.0452 13.1519 13.1498 14.0473 12.0452 14.0473H10.5041L9.414 15.1374C8.63295 15.9185 7.36662 15.9185 6.58557 15.1374L5.49547 14.0473H3.95112C2.84655 14.0473 1.95111 13.1519 1.95111 12.0473V10.503L0.862154 9.414ZM7.73026 10.7313L12.016 6.73134L10.6513 5.26923L7.04794 8.6324L5.34931 7.04701L3.98467 8.50912L6.36563 10.7313L7.04794 11.3682L7.73026 10.7313Z" fill="#0EBC73"/>
</svg>
